# xmcd
#
# Track frame offsets:
#	150
#	11600
#	25140
#	39260
#	50117
#	63255
#	76720
#	90317
#	104125
#	117557
#	129700
#	142575
#	155957
#	169922
#	183357
#	196377
#	209577
#	222887
#	236280
#	248365
#	261920
#	275467
#
# Disc length: 3850 seconds
#
# Revision: 0
# Processed by: cddbd v1.5.1PL2 Copyright (c) Steve Scherf et al.
# Submitted via: dBpowerAMP V4.0
#
DISCID=340f0816
DTITLE=Bo Carter - Complete Recorded Works, Vol 3 (1934 - 1936
DYEAR=1900
DGENRE=Blues
TTITLE0=Howlin' Tom Cat Blues
TTITLE1=Don't Cross Lay Your Daddy
TTITLE2=Who Broke The Latch?
TTITLE3=Don't Do It No More
TTITLE4=Skin Ball Blues
TTITLE5=Old Shoe Blues
TTITLE6=Please Warm Me Weiner
TTITLE7=She's Gonna Crawl Back Home To You
TTITLE8=Let Me Roll Your Lemon
TTITLE9=Mashing That Thing
TTITLE10=Blue Runner Blues
TTITLE11=Fifty-Ffity With Me
TTITLE12=To Her Burying Ground
TTITLE13=When Your Left Eye Go To Jumping
TTITLE14=Ride My Mule
TTITLE15=T Baby Blues
TTITLE16=I Get The Blues
TTITLE17=Spotted Sow Blues
TTITLE18=Rolling Blues
TTITLE19=All Around Man
TTITLE20=Far Mouth Blues
TTITLE21=You Better Know Your Business
EXTD=Document DOCD-5080
EXTT0=
EXTT1=
EXTT2=
EXTT3=
EXTT4=
EXTT5=
EXTT6=
EXTT7=
EXTT8=
EXTT9=
EXTT10=
EXTT11=
EXTT12=
EXTT13=
EXTT14=
EXTT15=
EXTT16=
EXTT17=
EXTT18=
EXTT19=
EXTT20=
EXTT21=
PLAYORDER=
